<svg width="100%" height="100%" viewBox="0 0 100 20" xmlns="http://www.w3.org/2000/svg"  xml:space="preserve" style="fill-rule:evenodd;clip-rule:evenodd;stroke-linejoin:round;stroke-miterlimit:2;"><g><path d="M0.067,0.208l12.896,0l0,3.64l-4.654,0l0,15.496l-3.77,0l0,-15.496l-4.472,0l0,-3.64Z" style="fill:#fff;fill-rule:nonzero;"/><path d="M22.583,9.802c0,-1.317 0.251,-2.565 0.754,-3.744c0.503,-1.179 1.2,-2.223 2.093,-3.133c0.893,-0.91 1.928,-1.625 3.107,-2.145c1.179,-0.52 2.444,-0.78 3.796,-0.78c1.335,0 2.591,0.26 3.77,0.78c1.179,0.52 2.223,1.235 3.133,2.145c0.91,0.91 1.621,1.954 2.132,3.133c0.511,1.179 0.767,2.427 0.767,3.744c-0,1.352 -0.256,2.617 -0.767,3.796c-0.511,1.179 -1.222,2.214 -2.132,3.107c-0.91,0.893 -1.954,1.59 -3.133,2.093c-1.179,0.503 -2.435,0.754 -3.77,0.754c-1.352,0 -2.617,-0.251 -3.796,-0.754c-1.179,-0.503 -2.214,-1.2 -3.107,-2.093c-0.893,-0.893 -1.59,-1.928 -2.093,-3.107c-0.503,-1.179 -0.754,-2.444 -0.754,-3.796Zm3.9,0c0,0.849 0.152,1.642 0.455,2.379c0.303,0.737 0.728,1.387 1.274,1.95c0.546,0.563 1.179,1.001 1.898,1.313c0.719,0.312 1.504,0.468 2.353,0.468c0.815,0 1.573,-0.156 2.275,-0.468c0.702,-0.312 1.313,-0.75 1.833,-1.313c0.52,-0.563 0.927,-1.213 1.222,-1.95c0.295,-0.737 0.442,-1.53 0.442,-2.379c0,-0.867 -0.152,-1.673 -0.455,-2.418c-0.303,-0.745 -0.719,-1.4 -1.248,-1.963c-0.529,-0.563 -1.148,-1.001 -1.859,-1.313c-0.711,-0.312 -1.482,-0.468 -2.314,-0.468c-0.832,0 -1.603,0.156 -2.314,0.468c-0.711,0.312 -1.335,0.75 -1.872,1.313c-0.537,0.563 -0.953,1.218 -1.248,1.963c-0.295,0.745 -0.442,1.551 -0.442,2.418Z" style="fill:#fff;fill-rule:nonzero;"/><path d="M53.705,19.344l0,-19.136l5.72,0c1.924,-0 3.562,0.286 4.914,0.858c1.352,0.572 2.44,1.335 3.263,2.288c0.823,0.953 1.426,2.019 1.807,3.198c0.381,1.179 0.572,2.366 0.572,3.562c0,1.421 -0.256,2.7 -0.767,3.835c-0.511,1.135 -1.209,2.106 -2.093,2.912c-0.884,0.806 -1.907,1.421 -3.068,1.846c-1.161,0.425 -2.392,0.637 -3.692,0.637l-6.656,0Zm3.77,-3.64l2.236,0c0.953,0 1.82,-0.126 2.6,-0.377c0.78,-0.251 1.452,-0.62 2.015,-1.105c0.563,-0.485 0.997,-1.096 1.3,-1.833c0.303,-0.737 0.455,-1.582 0.455,-2.535c0,-1.248 -0.204,-2.266 -0.611,-3.055c-0.407,-0.789 -0.91,-1.4 -1.508,-1.833c-0.598,-0.433 -1.209,-0.732 -1.833,-0.897c-0.624,-0.165 -1.153,-0.247 -1.586,-0.247l-3.068,0l0,11.882Z" style="fill:#fff;fill-rule:nonzero;"/><path d="M80.381,9.802c0,-1.317 0.251,-2.565 0.754,-3.744c0.503,-1.179 1.2,-2.223 2.093,-3.133c0.893,-0.91 1.928,-1.625 3.107,-2.145c1.179,-0.52 2.444,-0.78 3.796,-0.78c1.335,0 2.591,0.26 3.77,0.78c1.179,0.52 2.223,1.235 3.133,2.145c0.91,0.91 1.621,1.954 2.132,3.133c0.511,1.179 0.767,2.427 0.767,3.744c0,1.352 -0.256,2.617 -0.767,3.796c-0.511,1.179 -1.222,2.214 -2.132,3.107c-0.91,0.893 -1.954,1.59 -3.133,2.093c-1.179,0.503 -2.435,0.754 -3.77,0.754c-1.352,0 -2.617,-0.251 -3.796,-0.754c-1.179,-0.503 -2.214,-1.2 -3.107,-2.093c-0.893,-0.893 -1.59,-1.928 -2.093,-3.107c-0.503,-1.179 -0.754,-2.444 -0.754,-3.796Zm3.9,0c0,0.849 0.152,1.642 0.455,2.379c0.303,0.737 0.728,1.387 1.274,1.95c0.546,0.563 1.179,1.001 1.898,1.313c0.719,0.312 1.504,0.468 2.353,0.468c0.815,0 1.573,-0.156 2.275,-0.468c0.702,-0.312 1.313,-0.75 1.833,-1.313c0.52,-0.563 0.927,-1.213 1.222,-1.95c0.295,-0.737 0.442,-1.53 0.442,-2.379c0,-0.867 -0.152,-1.673 -0.455,-2.418c-0.303,-0.745 -0.719,-1.4 -1.248,-1.963c-0.529,-0.563 -1.148,-1.001 -1.859,-1.313c-0.711,-0.312 -1.482,-0.468 -2.314,-0.468c-0.832,0 -1.603,0.156 -2.314,0.468c-0.711,0.312 -1.335,0.75 -1.872,1.313c-0.537,0.563 -0.953,1.218 -1.248,1.963c-0.295,0.745 -0.442,1.551 -0.442,2.418Z" style="fill:#fff;fill-rule:nonzero;"/></g></svg>